REM DIRINDEX 1\2,1\4,1\3\5,1\3\6,1\3\7
REM DIRNAME folder01,folder02,folder03,folder04,folder05,folder06,folder07
TITLE ""
FILE "CD2Track35.mp3" MP3
  TRACK 01 AUDIO
    TITLE "0:"
    INDEX 01 00:00:00
  TRACK 02 AUDIO
    TITLE "4:cjc082_1956"
    INDEX 01 00:00:25
  TRACK 03 AUDIO
    TITLE "0:"
    INDEX 01 00:04:33
  TRACK 04 AUDIO
    TITLE "5:cjc082_1957"
    INDEX 01 00:05:07
  TRACK 05 AUDIO
    TITLE "0:"
    INDEX 01 00:06:31
  TRACK 06 AUDIO
    TITLE "6:cjc082_1958"
    INDEX 01 00:07:05
  TRACK 07 AUDIO
    TITLE "0:"
    INDEX 01 00:08:07
  TRACK 08 AUDIO
    TITLE "5:cjc082_1959"
    INDEX 01 00:08:50
  TRACK 09 AUDIO
    TITLE "0:"
    INDEX 01 00:10:00
  TRACK 10 AUDIO
    TITLE "6:cjc082_1960"
    INDEX 01 00:10:51
  TRACK 11 AUDIO
    TITLE "0:"
    INDEX 01 00:11:60
  TRACK 12 AUDIO
    TITLE "5:cjc082_1961"
    INDEX 01 00:12:36
  TRACK 13 AUDIO
    TITLE "0:"
    INDEX 01 00:13:45
  TRACK 14 AUDIO
    TITLE "6:cjc082_1962"
    INDEX 01 00:14:27
  TRACK 15 AUDIO
    TITLE "0:"
    INDEX 01 00:17:27
  TRACK 16 AUDIO
    TITLE "5:cjc082_1963"
    INDEX 01 00:17:74
  TRACK 17 AUDIO
    TITLE "0:"
    INDEX 01 00:19:34
  TRACK 18 AUDIO
    TITLE "6:cjc082_1964"
    INDEX 01 00:20:12
  TRACK 19 AUDIO
    TITLE "0:"
    INDEX 01 00:21:21
  TRACK 20 AUDIO
    TITLE "5:cjc082_1965"
    INDEX 01 00:21:72
  TRACK 21 AUDIO
    TITLE "0:"
    INDEX 01 00:23:06
  TRACK 22 AUDIO
    TITLE "6:cjc082_1966"
    INDEX 01 00:23:69
  TRACK 23 AUDIO
    TITLE "0:"
    INDEX 01 00:25:48
  TRACK 24 AUDIO
    TITLE "5:cjc082_1967"
    INDEX 01 00:26:24
  TRACK 25 AUDIO
    TITLE "0:"
    INDEX 01 00:27:45
  TRACK 26 AUDIO
    TITLE "6:cjc082_1968"
    INDEX 01 00:28:21
  TRACK 27 AUDIO
    TITLE "0:"
    INDEX 01 00:29:36
  TRACK 28 AUDIO
    TITLE "5:cjc082_1969"
    INDEX 01 00:30:10
  TRACK 29 AUDIO
    TITLE "0:"
    INDEX 01 00:31:22
  TRACK 30 AUDIO
    TITLE "6:cjc082_1970"
    INDEX 01 00:31:73
  TRACK 31 AUDIO
    TITLE "0:"
    INDEX 01 00:32:72
  TRACK 32 AUDIO
    TITLE "5:cjc082_1971"
    INDEX 01 00:33:44
  TRACK 33 AUDIO
    TITLE "0:"
    INDEX 01 00:34:69
  TRACK 34 AUDIO
    TITLE "6:cjc082_1972"
    INDEX 01 00:35:45
  TRACK 35 AUDIO
    TITLE "0:"
    INDEX 01 00:37:34
  TRACK 36 AUDIO
    TITLE "5:cjc082_1973"
    INDEX 01 00:38:12
  TRACK 37 AUDIO
    TITLE "0:"
    INDEX 01 00:39:27
  TRACK 38 AUDIO
    TITLE "6:cjc082_1974"
    INDEX 01 00:40:11
  TRACK 39 AUDIO
    TITLE "0:"
    INDEX 01 00:41:22
  TRACK 40 AUDIO
    TITLE "5:cjc082_1975"
    INDEX 01 00:41:71
  TRACK 41 AUDIO
    TITLE "0:"
    INDEX 01 00:43:07
  TRACK 42 AUDIO
    TITLE "6:cjc082_1976"
    INDEX 01 00:43:58
  TRACK 43 AUDIO
    TITLE "0:"
    INDEX 01 00:44:60
  TRACK 44 AUDIO
    TITLE "5:cjc082_1977"
    INDEX 01 00:45:32
  TRACK 45 AUDIO
    TITLE "0:"
    INDEX 01 00:46:49
  TRACK 46 AUDIO
    TITLE "6:cjc082_1978"
    INDEX 01 00:47:25
  TRACK 47 AUDIO
    TITLE "0:"
    INDEX 01 00:49:10
  TRACK 48 AUDIO
    TITLE "5:cjc082_1979"
    INDEX 01 00:49:55
  TRACK 49 AUDIO
    TITLE "0:"
    INDEX 01 00:50:66
  TRACK 50 AUDIO
    TITLE "6:cjc082_1980"
    INDEX 01 00:51:40
  TRACK 51 AUDIO
    TITLE "0:"
    INDEX 01 00:55:24
  TRACK 52 AUDIO
    TITLE "5:cjc082_1981"
    INDEX 01 00:55:73
  TRACK 53 AUDIO
    TITLE "0:"
    INDEX 01 00:57:13
  TRACK 54 AUDIO
    TITLE "6:cjc082_1982"
    INDEX 01 00:57:62
  TRACK 55 AUDIO
    TITLE "0:"
    INDEX 01 00:59:45
  TRACK 56 AUDIO
    TITLE "5:cjc082_1983"
    INDEX 01 01:00:25
  TRACK 57 AUDIO
    TITLE "0:"
    INDEX 01 01:01:42
  TRACK 58 AUDIO
    TITLE "6:cjc082_1984"
    INDEX 01 01:02:22
  TRACK 59 AUDIO
    TITLE "0:"
    INDEX 01 01:03:39
  TRACK 60 AUDIO
    TITLE "5:cjc082_1985"
    INDEX 01 01:04:19
  TRACK 61 AUDIO
    TITLE "0:"
    INDEX 01 01:05:34
  TRACK 62 AUDIO
    TITLE "6:cjc082_1986"
    INDEX 01 01:06:12
  TRACK 63 AUDIO
    TITLE "0:"
    INDEX 01 01:07:17
  TRACK 64 AUDIO
    TITLE "5:cjc082_1987"
    INDEX 01 01:07:68
  TRACK 65 AUDIO
    TITLE "0:"
    INDEX 01 01:09:07
  TRACK 66 AUDIO
    TITLE "6:cjc082_1988"
    INDEX 01 01:09:57
  TRACK 67 AUDIO
    TITLE "0:"
    INDEX 01 01:10:63
  TRACK 68 AUDIO
    TITLE "5:cjc082_1989"
    INDEX 01 01:11:41
  TRACK 69 AUDIO
    TITLE "0:"
    INDEX 01 01:12:66
  TRACK 70 AUDIO
    TITLE "6:cjc082_1990"
    INDEX 01 01:13:47
  TRACK 71 AUDIO
    TITLE "0:"
    INDEX 01 01:16:12
  TRACK 72 AUDIO
    TITLE "5:cjc082_1991"
    INDEX 01 01:16:61
  TRACK 73 AUDIO
    TITLE "0:"
    INDEX 01 01:17:69
  TRACK 74 AUDIO
    TITLE "6:cjc082_1992"
    INDEX 01 01:18:54
  TRACK 75 AUDIO
    TITLE "0:"
    INDEX 01 01:22:25
  TRACK 76 AUDIO
    TITLE "5:cjc082_1993"
    INDEX 01 01:23:01
  TRACK 77 AUDIO
    TITLE "0:"
    INDEX 01 01:24:49
  TRACK 78 AUDIO
    TITLE "6:cjc082_1994"
    INDEX 01 01:25:25
  TRACK 79 AUDIO
    TITLE "0:"
    INDEX 01 01:26:36
  TRACK 80 AUDIO
    TITLE "7:cjc082_1995"
    INDEX 01 01:28:02
  TRACK 81 AUDIO
    TITLE "0:"
    INDEX 01 01:38:10
